<svg width="400" height="400" viewBox="0 0 400 400" xmlns="http://www.w3.org/2000/svg" role="img">
<title>Architecture Decision Record icon</title>
<desc>Blueprint icon of a stone archway with a 50 px thick ring of five voussoirs, a raised keystone, single-piece pillars, and a 56 px plinth, separated by uniform mortar spacers on a medium-light blue grid background.</desc>
<rect width="400" height="400" fill="#2D6FAB"/>
<g stroke="#B8D2EA" stroke-width="1.5" opacity="0.6">
<line x1="40" y1="0" x2="40" y2="400"/>
<line x1="80" y1="0" x2="80" y2="400"/>
<line x1="120" y1="0" x2="120" y2="400"/>
<line x1="160" y1="0" x2="160" y2="400"/>
<line x1="200" y1="0" x2="200" y2="400"/>
<line x1="240" y1="0" x2="240" y2="400"/>
<line x1="280" y1="0" x2="280" y2="400"/>
<line x1="320" y1="0" x2="320" y2="400"/>
<line x1="360" y1="0" x2="360" y2="400"/>
<line x1="0" y1="40" x2="400" y2="40"/>
<line x1="0" y1="80" x2="400" y2="80"/>
<line x1="0" y1="120" x2="400" y2="120"/>
<line x1="0" y1="160" x2="400" y2="160"/>
<line x1="0" y1="200" x2="400" y2="200"/>
<line x1="0" y1="240" x2="400" y2="240"/>
<line x1="0" y1="280" x2="400" y2="280"/>
<line x1="0" y1="320" x2="400" y2="320"/>
<line x1="0" y1="360" x2="400" y2="360"/>
</g>
<g fill="#F2F6FB" stroke="none">
<path d="M 50,220 A 150 150 0 0 1 74.19,138.31 L 116.13,165.54 A 100 100 0 0 0 100,220 Z"/>
<path d="M 80.21,129.73 A 150 150 0 0 1 143.81,80.92 L 162.54,127.28 A 100 100 0 0 0 120.14,159.82 Z"/>
<path d="M 147.47,58.31 A 170 170 0 0 1 252.53,58.31 L 230.90,124.89 A 100 100 0 0 0 169.10,124.89 Z"/>
<path d="M 256.19,80.92 A 150 150 0 0 1 319.79,129.73 L 279.86,159.82 A 100 100 0 0 0 237.46,127.28 Z"/>
<path d="M 325.81,138.31 A 150 150 0 0 1 350,220 L 300,220 A 100 100 0 0 0 283.87,165.54 Z"/>
<rect x="50" y="228" width="50" height="100"/>
<rect x="300" y="228" width="50" height="100"/>
<rect x="20" y="336" width="360" height="56"/>
</g>
</svg>
